<?xml version="1.0" encoding="UTF-8"?>
<svg id="Capa_2" data-name="Capa 2" xmlns="http://www.w3.org/2000/svg" viewBox="0 0 116.43 29.8">
  <defs>
    <style>
      .cls-1 {
        opacity: .85;
      }

      .cls-2 {
        fill: #063;
      }
    </style>
  </defs>
  <g id="Capa_1-2" data-name="Capa 1">
    <g class="cls-1">
      <g>
        <path class="cls-2" d="m107.11,3.39c-.37-.02-.75-.05-1.12-.07.19.03.37.06.56.12.24.04.37,0,.56-.04Z"/>
        <path class="cls-2" d="m104.96,3.24c-.07,0-.14,0-.2-.01-.06,0-.12,0-.17.01h.37Z"/>
        <path class="cls-2" d="m103,3.2c.34.03.67.04.99.04-.28-.03-.61-.05-.99-.04Z"/>
        <path class="cls-2" d="m104.55,3.34c-.12-.04-.17-.08.02-.1h0c-.2,0-.39,0-.59,0,.21.03.4.06.56.1Z"/>
        <path class="cls-2" d="m104.55,3.34c.13.04.29.08.36.11-.1-.04-.22-.07-.36-.11Z"/>
        <path class="cls-2" d="m104.02,4.16c-.2.02-.14-.22-.53-.19-.92.02-1.7.08-2.56.04-.39.03-.99-.26-1.38-.23-.92.02-3.27.22-1.89.28,2.06.05,3.43.08,5.28.13,1.51-.02,2.98-.04,4.52-.05.43.01.84.05,1.24.09-.53-.06-1.07-.13-1.67-.2-.79-.11-1.77.15-3.01.13Z"/>
        <path class="cls-2" d="m115.35,4c-.2.02-.59.05-.59.05-.86-.22-1.78-.21-2.69-.19l.4.14c.52.02.59-.05.13-.13,1.05.21,2.06.29,3.09.32-.06-.07-.04-.14-.33-.19Z"/>
        <path class="cls-2" d="m116.28,4.21c-.2,0-.41-.01-.6-.01,0,0,.01.01.02.02h.61-.02Z"/>
        <path class="cls-2" d="m98.86,3.2c-2.59-.14-5.03-.27-7.42-.39-.19.04-.32.09-.56.05-.18-.05-.37-.09-.56-.11-.35-.02-.7-.04-1.04-.06-.12,0-.24,0-.37,0h-.01c-.2.02-.14.06-.02.1.13.03.26.07.36.1-.08-.02-.23-.07-.36-.1-.16-.04-.34-.07-.56-.09-.32,0-.65,0-.99-.04.38-.01.71,0,.99.04.2,0,.39,0,.59,0,.06,0,.11,0,.17-.01-.79-.05-1.58-.1-2.37-.14-.18,0-.35,0-.5,0-.57,0-1.15.01-1.5-.12-.14,0-.28-.02-.42-.03.03,0,.05.02.08.03-.06-.01-.11-.02-.16-.03-.6-.04-1.19-.07-1.8-.11-.39.03-.79.07-1.2.08,0,0-.27-.09-.4-.14-.17.05-.4.08-.67.09.32.09.61.18.89.24.4.14.91-.2,1.38.05-.47-.25-.98.09-1.38-.05-.27-.06-.56-.15-.89-.24-.57.02-1.3-.05-1.89-.19.74-.07,1.35.05,1.89.19.27,0,.51-.04.67-.09.13.05.4.14.4.14.4-.02.81-.06,1.2-.08-1.17-.07-2.36-.14-3.57-.21-7.79-.47-14.99-.68-23.08-.99-4.37-.19-8.58-.37-12.73-.54-8.25-.36-15.77-.05-24.13-.48-3.21-.13-9.15.16-12.24.35-4.12.59-1.91,1.52-1.72,1.57,2.58.78,4.53.13,9.71.52-3.53-.18,2.58-.67,5.91-.11,4.82.83,11.65.03,17.58.32,1.48.07,3.06.02,4.83.07,9.18.41,17.72.25,27.38.66,2.56.08,4.82-.05,6.98-.09,1.58.02,3.25.2,4.53.26,2.01.09,3.75.08,5.41.04-1.85-.03-3.22-.05-5.28-.09-1.38-.05.97-.27,1.89-.29.39-.04.99.26,1.39.22.85.04,1.63-.04,2.55-.06.39-.03.34.2.53.19,1.25,0,2.22-.26,3.01-.15.6.07,1.14.13,1.67.19.33.03.67.06,1.02.06.22,0,.45-.02.68-.03-.18-.08-.24-.18-.29-.27.32.04.8.1,1.12.14-.32-.04-.8-.1-1.12-.14.06.09.12.19.29.27,1.64-.06,3.54-.09,5.3-.1l-.02-.02c-1.03-.03-2.03-.1-3.09-.3.46.08.4.14-.13.13l-.4-.14c.92-.02,1.83-.04,2.69.17,0,0,.39-.03.59-.05.29.05.27.12.33.19.2,0,.4,0,.61.01-.42-.14-1.76-.36-1.76-.36Z"/>
        <path class="cls-2" d="m88.3,2.68c.14,0,.31,0,.5,0-.66-.04-1.33-.08-1.99-.13.35.13.92.13,1.5.12Z"/>
      </g>
    </g>
    <g class="cls-1">
      <g>
        <path class="cls-2" d="m107.21,27.42c-.37.01-.75.02-1.12.03.19,0,.38.03.57.06.25.02.37-.04.55-.1Z"/>
        <path class="cls-2" d="m105.05,27.48c-.07,0-.14,0-.2,0-.06,0-.12.02-.17.03l.37-.03Z"/>
        <path class="cls-2" d="m103.1,27.6c.35,0,.68-.02.99-.04-.28,0-.61,0-.99.04Z"/>
        <path class="cls-2" d="m104.66,27.61c-.12-.03-.18-.07.02-.1h0c-.19.02-.39.03-.59.05.21,0,.4.02.56.05Z"/>
        <path class="cls-2" d="m104.66,27.61c.13.03.29.06.37.07-.11-.03-.23-.05-.37-.07Z"/>
        <path class="cls-2" d="m104.19,28.48c-.2.03-.16-.21-.55-.14-.91.1-1.69.22-2.55.25-.39.06-1.01-.19-1.4-.13-.92.09-3.25.46-1.87.42,2.08-.08,3.43-.18,5.29-.27,1.51-.15,2.98-.3,4.51-.46.43-.03.84-.03,1.25-.03-.54-.01-1.08-.02-1.69-.03-.8-.03-1.75.31-2.99.41Z"/>
        <path class="cls-2" d="m115.42,26.91c-.18.06-.55.18-.55.18-.88-.04-1.77.11-2.68.24l.41.09c.52-.06.57-.13.11-.14,1.07.05,2.08,0,3.08-.28-.08-.05-.08-.12-.37-.09Z"/>
        <path class="cls-2" d="m116.27,26.72c-.07.15-.31.21-.48.27,0,0,.02,0,.03.01.17-.07.42-.14.47-.3h-.01Z"/>
        <path class="cls-2" d="m98.97,27.93c-2.6.07-5.04.09-7.43.1-.18.05-.31.11-.56.08-.19-.04-.38-.06-.56-.08-.35,0-.7,0-1.04,0-.12,0-.24.02-.37.02h-.01c-.2.03-.14.07-.02.1.14.02.26.05.37.08-.08-.02-.23-.05-.37-.08-.16-.03-.35-.05-.56-.06-.32.02-.65.03-.99.02.38-.03.71-.04.99-.02.2-.01.39-.03.59-.04.06,0,.11-.02.17-.02-.8,0-1.59,0-2.38,0-.18,0-.35.02-.5.02-.57.04-1.15.07-1.5-.04-.14,0-.28,0-.43,0,.03,0,.05.01.08.02-.06,0-.11-.02-.16-.02-.6,0-1.2-.01-1.8-.02-.39.05-.79.11-1.19.14,0,0-.27-.08-.4-.12-.16.06-.4.1-.67.12.32.07.62.15.9.19.4.12.9-.25,1.38-.02-.48-.22-.97.14-1.38.02-.28-.05-.57-.12-.9-.19-.57.05-1.3,0-1.9-.11.74-.11,1.35-.01,1.9.11.27-.02.51-.06.67-.12.13.04.4.12.4.12.4-.04.8-.1,1.19-.14-1.18-.01-2.36-.03-3.58-.04-7.83-.07-15.01-.13-23.11-.2-4.39-.07-8.6-.19-12.74-.34-8.25-.3-15.77,0-24.1-.64-3.2-.22-9.14-.12-12.22-.1-4.13.4-1.99,1.43-1.8,1.49,2.54.88,4.53.39,9.7.92-3.52-.3,2.6-.56,5.93.05,4.81.93,11.68.22,17.62.47,1.49.06,3.06.03,4.84.05,9.21.34,17.76-.04,27.44.01,2.57,0,4.82-.24,6.98-.37,1.58-.05,3.27.06,4.55.05,2.02-.02,3.75-.12,5.42-.24-1.86.07-3.22.12-5.29.19-1.38.02.96-.31,1.87-.39.39-.06,1.01.2,1.4.15.85,0,1.63-.12,2.55-.2.39-.06.35.18.54.15,1.25-.07,2.2-.39,3-.33.6.03,1.15.06,1.68.09.34,0,.67.01,1.03,0,.22-.02.45-.05.68-.07-.18-.07-.25-.16-.31-.25.32.02.8.04,1.12.06-.32-.02-.8-.04-1.12-.06.06.09.13.18.31.25,1.64-.17,3.53-.33,5.29-.48l-.02-.02c-1.03.05-2.03.05-3.1-.08.46.04.41.11-.12.14l-.41-.11c.92-.08,1.83-.17,2.7-.02,0,0,.39-.06.58-.09.29.03.28.1.34.16.2-.01.4-.02.61-.03-.43-.11-1.78-.23-1.78-.23Z"/>
        <path class="cls-2" d="m88.39,28.08c.14,0,.31-.02.5-.02-.67,0-1.33,0-2-.01.35.11.93.08,1.5.04Z"/>
      </g>
    </g>
    <path class="cls-2" d="m5.26.87C1.27,1,.54,6.78.24,9.73c-.48,4.68-.35,10.01,1.44,14.43.75,1.85,1.94,3.74,3.98,4.29.68.18,1.57,0,2.05-.55.41-.48.31-1.12-.35-1.3-3.02-.81-3.76-6.02-4.1-8.61-.54-4.1-.5-8.56.62-12.57.21-.74.47-1.49.88-2.14.08-.13.4-.56.33-.45.12-.19.14-.08.06-.05.06-.02-.63.09-.18.07,1.59-.05,2.28-2.05.29-1.98h0Z"/>
  </g>
</svg>